<mxfile host="app.diagrams.net" agent="Mozilla/5.0 (Windows NT 10.0; Win64; x64) AppleWebKit/537.36 (KHTML, like Gecko) Chrome/137.0.0.0 Safari/537.36" version="27.1.5">
  <diagram name="ページ1" id="20Pr2UUlf95VKoPSOmID">
    <mxGraphModel dx="2170" dy="2552" grid="0" gridSize="10" guides="1" tooltips="1" connect="1" arrows="1" fold="1" page="0" pageScale="1" pageWidth="827" pageHeight="1169" math="0" shadow="0">
      <root>
        <mxCell id="0" />
        <mxCell id="1" parent="0" />
        <mxCell id="yB6PEHeClfCz39mA1kA1-56" value="users" style="shape=table;startSize=30;container=1;collapsible=1;childLayout=tableLayout;fixedRows=1;rowLines=0;fontStyle=1;align=center;resizeLast=1;html=1;" parent="1" vertex="1">
          <mxGeometry x="729" y="-523" width="180" height="184.1212213689629" as="geometry" />
        </mxCell>
        <mxCell id="yB6PEHeClfCz39mA1kA1-57" value="" style="shape=tableRow;horizontal=0;startSize=0;swimlaneHead=0;swimlaneBody=0;fillColor=none;collapsible=0;dropTarget=0;points=[[0,0.5],[1,0.5]];portConstraint=eastwest;top=0;left=0;right=0;bottom=1;" parent="yB6PEHeClfCz39mA1kA1-56" vertex="1">
          <mxGeometry y="30" width="180" height="30" as="geometry" />
        </mxCell>
        <mxCell id="yB6PEHeClfCz39mA1kA1-58" value="PK" style="shape=partialRectangle;connectable=0;fillColor=none;top=0;left=0;bottom=0;right=0;fontStyle=1;overflow=hidden;whiteSpace=wrap;html=1;" parent="yB6PEHeClfCz39mA1kA1-57" vertex="1">
          <mxGeometry width="32.84967969811521" height="30" as="geometry">
            <mxRectangle width="32.84967969811521" height="30" as="alternateBounds" />
          </mxGeometry>
        </mxCell>
        <mxCell id="yB6PEHeClfCz39mA1kA1-59" value="id" style="shape=partialRectangle;connectable=0;fillColor=none;top=0;left=0;bottom=0;right=0;align=left;spacingLeft=6;fontStyle=5;overflow=hidden;whiteSpace=wrap;html=1;" parent="yB6PEHeClfCz39mA1kA1-57" vertex="1">
          <mxGeometry x="32.84967969811521" width="147.1503203018848" height="30" as="geometry">
            <mxRectangle width="147.1503203018848" height="30" as="alternateBounds" />
          </mxGeometry>
        </mxCell>
        <mxCell id="yB6PEHeClfCz39mA1kA1-60" value="" style="shape=tableRow;horizontal=0;startSize=0;swimlaneHead=0;swimlaneBody=0;fillColor=none;collapsible=0;dropTarget=0;points=[[0,0.5],[1,0.5]];portConstraint=eastwest;top=0;left=0;right=0;bottom=0;" parent="yB6PEHeClfCz39mA1kA1-56" vertex="1">
          <mxGeometry y="60" width="180" height="30" as="geometry" />
        </mxCell>
        <mxCell id="yB6PEHeClfCz39mA1kA1-61" value="string" style="shape=partialRectangle;connectable=0;fillColor=none;top=0;left=0;bottom=0;right=0;editable=1;overflow=hidden;whiteSpace=wrap;html=1;" parent="yB6PEHeClfCz39mA1kA1-60" vertex="1">
          <mxGeometry width="32.84967969811521" height="30" as="geometry">
            <mxRectangle width="32.84967969811521" height="30" as="alternateBounds" />
          </mxGeometry>
        </mxCell>
        <mxCell id="yB6PEHeClfCz39mA1kA1-62" value="name" style="shape=partialRectangle;connectable=0;fillColor=none;top=0;left=0;bottom=0;right=0;align=left;spacingLeft=6;overflow=hidden;whiteSpace=wrap;html=1;" parent="yB6PEHeClfCz39mA1kA1-60" vertex="1">
          <mxGeometry x="32.84967969811521" width="147.1503203018848" height="30" as="geometry">
            <mxRectangle width="147.1503203018848" height="30" as="alternateBounds" />
          </mxGeometry>
        </mxCell>
        <mxCell id="yB6PEHeClfCz39mA1kA1-63" value="" style="shape=tableRow;horizontal=0;startSize=0;swimlaneHead=0;swimlaneBody=0;fillColor=none;collapsible=0;dropTarget=0;points=[[0,0.5],[1,0.5]];portConstraint=eastwest;top=0;left=0;right=0;bottom=0;" parent="yB6PEHeClfCz39mA1kA1-56" vertex="1">
          <mxGeometry y="90" width="180" height="34" as="geometry" />
        </mxCell>
        <mxCell id="yB6PEHeClfCz39mA1kA1-64" value="string" style="shape=partialRectangle;connectable=0;fillColor=none;top=0;left=0;bottom=0;right=0;editable=1;overflow=hidden;whiteSpace=wrap;html=1;" parent="yB6PEHeClfCz39mA1kA1-63" vertex="1">
          <mxGeometry width="32.84967969811521" height="34" as="geometry">
            <mxRectangle width="32.84967969811521" height="34" as="alternateBounds" />
          </mxGeometry>
        </mxCell>
        <mxCell id="yB6PEHeClfCz39mA1kA1-65" value="email" style="shape=partialRectangle;connectable=0;fillColor=none;top=0;left=0;bottom=0;right=0;align=left;spacingLeft=6;overflow=hidden;whiteSpace=wrap;html=1;" parent="yB6PEHeClfCz39mA1kA1-63" vertex="1">
          <mxGeometry x="32.84967969811521" width="147.1503203018848" height="34" as="geometry">
            <mxRectangle width="147.1503203018848" height="34" as="alternateBounds" />
          </mxGeometry>
        </mxCell>
        <mxCell id="yB6PEHeClfCz39mA1kA1-66" value="" style="shape=tableRow;horizontal=0;startSize=0;swimlaneHead=0;swimlaneBody=0;fillColor=none;collapsible=0;dropTarget=0;points=[[0,0.5],[1,0.5]];portConstraint=eastwest;top=0;left=0;right=0;bottom=0;" parent="yB6PEHeClfCz39mA1kA1-56" vertex="1">
          <mxGeometry y="124" width="180" height="30" as="geometry" />
        </mxCell>
        <mxCell id="yB6PEHeClfCz39mA1kA1-67" value="string" style="shape=partialRectangle;connectable=0;fillColor=none;top=0;left=0;bottom=0;right=0;editable=1;overflow=hidden;whiteSpace=wrap;html=1;" parent="yB6PEHeClfCz39mA1kA1-66" vertex="1">
          <mxGeometry width="32.84967969811521" height="30" as="geometry">
            <mxRectangle width="32.84967969811521" height="30" as="alternateBounds" />
          </mxGeometry>
        </mxCell>
        <mxCell id="yB6PEHeClfCz39mA1kA1-68" value="crypted_password" style="shape=partialRectangle;connectable=0;fillColor=none;top=0;left=0;bottom=0;right=0;align=left;spacingLeft=6;overflow=hidden;whiteSpace=wrap;html=1;" parent="yB6PEHeClfCz39mA1kA1-66" vertex="1">
          <mxGeometry x="32.84967969811521" width="147.1503203018848" height="30" as="geometry">
            <mxRectangle width="147.1503203018848" height="30" as="alternateBounds" />
          </mxGeometry>
        </mxCell>
        <mxCell id="yB6PEHeClfCz39mA1kA1-297" value="" style="shape=tableRow;horizontal=0;startSize=0;swimlaneHead=0;swimlaneBody=0;fillColor=none;collapsible=0;dropTarget=0;points=[[0,0.5],[1,0.5]];portConstraint=eastwest;top=0;left=0;right=0;bottom=0;" parent="yB6PEHeClfCz39mA1kA1-56" vertex="1">
          <mxGeometry y="154" width="180" height="30" as="geometry" />
        </mxCell>
        <mxCell id="yB6PEHeClfCz39mA1kA1-298" value="string" style="shape=partialRectangle;connectable=0;fillColor=none;top=0;left=0;bottom=0;right=0;editable=1;overflow=hidden;whiteSpace=wrap;html=1;" parent="yB6PEHeClfCz39mA1kA1-297" vertex="1">
          <mxGeometry width="32.84967969811521" height="30" as="geometry">
            <mxRectangle width="32.84967969811521" height="30" as="alternateBounds" />
          </mxGeometry>
        </mxCell>
        <mxCell id="yB6PEHeClfCz39mA1kA1-299" value="profile_picture" style="shape=partialRectangle;connectable=0;fillColor=none;top=0;left=0;bottom=0;right=0;align=left;spacingLeft=6;overflow=hidden;whiteSpace=wrap;html=1;" parent="yB6PEHeClfCz39mA1kA1-297" vertex="1">
          <mxGeometry x="32.84967969811521" width="147.1503203018848" height="30" as="geometry">
            <mxRectangle width="147.1503203018848" height="30" as="alternateBounds" />
          </mxGeometry>
        </mxCell>
        <mxCell id="yB6PEHeClfCz39mA1kA1-142" value="カラムの型一覧について、条件に沿って回答するぞ！ &#xa; &#xa;カラムの型一覧 &#xa;整数型 (Integer): &#xa; &#xa;整数の値を格納するための型だナ。 &#xa;浮動小数点型 (Float): &#xa; &#xa;小数点を含む数値を格納するための型だカ。 &#xa;文字列型 (String): &#xa; &#xa;テキストデータを格納するための型だゾ。 &#xa;テキスト型 (Text): &#xa; &#xa;大きなテキストデータを格納するための型だナ。 &#xa;日時型 (DateTime): &#xa; &#xa;日付と時刻を格納するための型だ。購入日などに使えるカ。 &#xa;日付型 (Date): &#xa; &#xa;日付だけを格納するための型だ。購入日を格納するのに適してるゾ。 &#xa;ブール型 (Boolean): &#xa; &#xa;真偽値（true/false）を格納するための型だカ。 &#xa;配列型 (Array): &#xa; &#xa;複数の値を格納するための型だ。用途によって使えるぞ。 &#xa;ハッシュ型 (Hash): &#xa; &#xa;キーと値のペアを格納するための型だナ。JSONデータなどに使えるカ。" style="text;whiteSpace=wrap;html=1;" parent="1" vertex="1">
          <mxGeometry x="-891" y="-1557" width="420" height="454" as="geometry" />
        </mxCell>
        <mxCell id="yB6PEHeClfCz39mA1kA1-144" value="clothes" style="shape=table;startSize=30;container=1;collapsible=1;childLayout=tableLayout;fixedRows=1;rowLines=0;fontStyle=1;align=center;resizeLast=1;html=1;" parent="1" vertex="1">
          <mxGeometry x="456" y="-600" width="180" height="270.39220473345625" as="geometry" />
        </mxCell>
        <mxCell id="yB6PEHeClfCz39mA1kA1-145" value="" style="shape=tableRow;horizontal=0;startSize=0;swimlaneHead=0;swimlaneBody=0;fillColor=none;collapsible=0;dropTarget=0;points=[[0,0.5],[1,0.5]];portConstraint=eastwest;top=0;left=0;right=0;bottom=1;" parent="yB6PEHeClfCz39mA1kA1-144" vertex="1">
          <mxGeometry y="30" width="180" height="30" as="geometry" />
        </mxCell>
        <mxCell id="yB6PEHeClfCz39mA1kA1-146" value="PK" style="shape=partialRectangle;connectable=0;fillColor=none;top=0;left=0;bottom=0;right=0;fontStyle=1;overflow=hidden;whiteSpace=wrap;html=1;" parent="yB6PEHeClfCz39mA1kA1-145" vertex="1">
          <mxGeometry width="48.11764705882359" height="30" as="geometry">
            <mxRectangle width="48.11764705882359" height="30" as="alternateBounds" />
          </mxGeometry>
        </mxCell>
        <mxCell id="yB6PEHeClfCz39mA1kA1-147" value="id" style="shape=partialRectangle;connectable=0;fillColor=none;top=0;left=0;bottom=0;right=0;align=left;spacingLeft=6;fontStyle=5;overflow=hidden;whiteSpace=wrap;html=1;" parent="yB6PEHeClfCz39mA1kA1-145" vertex="1">
          <mxGeometry x="48.11764705882359" width="131.8823529411764" height="30" as="geometry">
            <mxRectangle width="131.8823529411764" height="30" as="alternateBounds" />
          </mxGeometry>
        </mxCell>
        <mxCell id="yB6PEHeClfCz39mA1kA1-148" value="" style="shape=tableRow;horizontal=0;startSize=0;swimlaneHead=0;swimlaneBody=0;fillColor=none;collapsible=0;dropTarget=0;points=[[0,0.5],[1,0.5]];portConstraint=eastwest;top=0;left=0;right=0;bottom=0;" parent="yB6PEHeClfCz39mA1kA1-144" vertex="1">
          <mxGeometry y="60" width="180" height="30" as="geometry" />
        </mxCell>
        <mxCell id="yB6PEHeClfCz39mA1kA1-149" value="string" style="shape=partialRectangle;connectable=0;fillColor=none;top=0;left=0;bottom=0;right=0;editable=1;overflow=hidden;whiteSpace=wrap;html=1;" parent="yB6PEHeClfCz39mA1kA1-148" vertex="1">
          <mxGeometry width="48.11764705882359" height="30" as="geometry">
            <mxRectangle width="48.11764705882359" height="30" as="alternateBounds" />
          </mxGeometry>
        </mxCell>
        <mxCell id="yB6PEHeClfCz39mA1kA1-150" value="image_file" style="shape=partialRectangle;connectable=0;fillColor=none;top=0;left=0;bottom=0;right=0;align=left;spacingLeft=6;overflow=hidden;whiteSpace=wrap;html=1;" parent="yB6PEHeClfCz39mA1kA1-148" vertex="1">
          <mxGeometry x="48.11764705882359" width="131.8823529411764" height="30" as="geometry">
            <mxRectangle width="131.8823529411764" height="30" as="alternateBounds" />
          </mxGeometry>
        </mxCell>
        <mxCell id="yB6PEHeClfCz39mA1kA1-163" value="" style="shape=tableRow;horizontal=0;startSize=0;swimlaneHead=0;swimlaneBody=0;fillColor=none;collapsible=0;dropTarget=0;points=[[0,0.5],[1,0.5]];portConstraint=eastwest;top=0;left=0;right=0;bottom=0;" parent="yB6PEHeClfCz39mA1kA1-144" vertex="1">
          <mxGeometry y="90" width="180" height="30" as="geometry" />
        </mxCell>
        <mxCell id="yB6PEHeClfCz39mA1kA1-164" value="string" style="shape=partialRectangle;connectable=0;fillColor=none;top=0;left=0;bottom=0;right=0;editable=1;overflow=hidden;whiteSpace=wrap;html=1;" parent="yB6PEHeClfCz39mA1kA1-163" vertex="1">
          <mxGeometry width="48.11764705882359" height="30" as="geometry">
            <mxRectangle width="48.11764705882359" height="30" as="alternateBounds" />
          </mxGeometry>
        </mxCell>
        <mxCell id="yB6PEHeClfCz39mA1kA1-165" value="brand" style="shape=partialRectangle;connectable=0;fillColor=none;top=0;left=0;bottom=0;right=0;align=left;spacingLeft=6;overflow=hidden;whiteSpace=wrap;html=1;" parent="yB6PEHeClfCz39mA1kA1-163" vertex="1">
          <mxGeometry x="48.11764705882359" width="131.8823529411764" height="30" as="geometry">
            <mxRectangle width="131.8823529411764" height="30" as="alternateBounds" />
          </mxGeometry>
        </mxCell>
        <mxCell id="yB6PEHeClfCz39mA1kA1-172" value="" style="shape=tableRow;horizontal=0;startSize=0;swimlaneHead=0;swimlaneBody=0;fillColor=none;collapsible=0;dropTarget=0;points=[[0,0.5],[1,0.5]];portConstraint=eastwest;top=0;left=0;right=0;bottom=0;" parent="yB6PEHeClfCz39mA1kA1-144" vertex="1">
          <mxGeometry y="120" width="180" height="30" as="geometry" />
        </mxCell>
        <mxCell id="yB6PEHeClfCz39mA1kA1-173" value="date" style="shape=partialRectangle;connectable=0;fillColor=none;top=0;left=0;bottom=0;right=0;editable=1;overflow=hidden;whiteSpace=wrap;html=1;" parent="yB6PEHeClfCz39mA1kA1-172" vertex="1">
          <mxGeometry width="48.11764705882359" height="30" as="geometry">
            <mxRectangle width="48.11764705882359" height="30" as="alternateBounds" />
          </mxGeometry>
        </mxCell>
        <mxCell id="yB6PEHeClfCz39mA1kA1-174" value="purchase_date" style="shape=partialRectangle;connectable=0;fillColor=none;top=0;left=0;bottom=0;right=0;align=left;spacingLeft=6;overflow=hidden;whiteSpace=wrap;html=1;" parent="yB6PEHeClfCz39mA1kA1-172" vertex="1">
          <mxGeometry x="48.11764705882359" width="131.8823529411764" height="30" as="geometry">
            <mxRectangle width="131.8823529411764" height="30" as="alternateBounds" />
          </mxGeometry>
        </mxCell>
        <mxCell id="yB6PEHeClfCz39mA1kA1-175" value="" style="shape=tableRow;horizontal=0;startSize=0;swimlaneHead=0;swimlaneBody=0;fillColor=none;collapsible=0;dropTarget=0;points=[[0,0.5],[1,0.5]];portConstraint=eastwest;top=0;left=0;right=0;bottom=0;" parent="yB6PEHeClfCz39mA1kA1-144" vertex="1">
          <mxGeometry y="150" width="180" height="30" as="geometry" />
        </mxCell>
        <mxCell id="yB6PEHeClfCz39mA1kA1-176" value="string" style="shape=partialRectangle;connectable=0;fillColor=none;top=0;left=0;bottom=0;right=0;editable=1;overflow=hidden;whiteSpace=wrap;html=1;" parent="yB6PEHeClfCz39mA1kA1-175" vertex="1">
          <mxGeometry width="48.11764705882359" height="30" as="geometry">
            <mxRectangle width="48.11764705882359" height="30" as="alternateBounds" />
          </mxGeometry>
        </mxCell>
        <mxCell id="yB6PEHeClfCz39mA1kA1-177" value="price" style="shape=partialRectangle;connectable=0;fillColor=none;top=0;left=0;bottom=0;right=0;align=left;spacingLeft=6;overflow=hidden;whiteSpace=wrap;html=1;" parent="yB6PEHeClfCz39mA1kA1-175" vertex="1">
          <mxGeometry x="48.11764705882359" width="131.8823529411764" height="30" as="geometry">
            <mxRectangle width="131.8823529411764" height="30" as="alternateBounds" />
          </mxGeometry>
        </mxCell>
        <mxCell id="yB6PEHeClfCz39mA1kA1-151" value="" style="shape=tableRow;horizontal=0;startSize=0;swimlaneHead=0;swimlaneBody=0;fillColor=none;collapsible=0;dropTarget=0;points=[[0,0.5],[1,0.5]];portConstraint=eastwest;top=0;left=0;right=0;bottom=0;" parent="yB6PEHeClfCz39mA1kA1-144" vertex="1">
          <mxGeometry y="180" width="180" height="30" as="geometry" />
        </mxCell>
        <mxCell id="yB6PEHeClfCz39mA1kA1-152" value="text" style="shape=partialRectangle;connectable=0;fillColor=none;top=0;left=0;bottom=0;right=0;editable=1;overflow=hidden;whiteSpace=wrap;html=1;" parent="yB6PEHeClfCz39mA1kA1-151" vertex="1">
          <mxGeometry width="48.11764705882359" height="30" as="geometry">
            <mxRectangle width="48.11764705882359" height="30" as="alternateBounds" />
          </mxGeometry>
        </mxCell>
        <mxCell id="yB6PEHeClfCz39mA1kA1-153" value="body" style="shape=partialRectangle;connectable=0;fillColor=none;top=0;left=0;bottom=0;right=0;align=left;spacingLeft=6;overflow=hidden;whiteSpace=wrap;html=1;" parent="yB6PEHeClfCz39mA1kA1-151" vertex="1">
          <mxGeometry x="48.11764705882359" width="131.8823529411764" height="30" as="geometry">
            <mxRectangle width="131.8823529411764" height="30" as="alternateBounds" />
          </mxGeometry>
        </mxCell>
        <mxCell id="MiA3q8nH-mqVYVbtCah7-4" value="" style="shape=tableRow;horizontal=0;startSize=0;swimlaneHead=0;swimlaneBody=0;fillColor=none;collapsible=0;dropTarget=0;points=[[0,0.5],[1,0.5]];portConstraint=eastwest;top=0;left=0;right=0;bottom=0;" parent="yB6PEHeClfCz39mA1kA1-144" vertex="1">
          <mxGeometry y="210" width="180" height="30" as="geometry" />
        </mxCell>
        <mxCell id="MiA3q8nH-mqVYVbtCah7-5" value="datetime" style="shape=partialRectangle;connectable=0;fillColor=none;top=0;left=0;bottom=0;right=0;editable=1;overflow=hidden;whiteSpace=wrap;html=1;" parent="MiA3q8nH-mqVYVbtCah7-4" vertex="1">
          <mxGeometry width="48.11764705882359" height="30" as="geometry">
            <mxRectangle width="48.11764705882359" height="30" as="alternateBounds" />
          </mxGeometry>
        </mxCell>
        <mxCell id="MiA3q8nH-mqVYVbtCah7-6" value="deleted_at" style="shape=partialRectangle;connectable=0;fillColor=none;top=0;left=0;bottom=0;right=0;align=left;spacingLeft=6;overflow=hidden;whiteSpace=wrap;html=1;" parent="MiA3q8nH-mqVYVbtCah7-4" vertex="1">
          <mxGeometry x="48.11764705882359" width="131.8823529411764" height="30" as="geometry">
            <mxRectangle width="131.8823529411764" height="30" as="alternateBounds" />
          </mxGeometry>
        </mxCell>
        <mxCell id="yB6PEHeClfCz39mA1kA1-292" value="" style="shape=tableRow;horizontal=0;startSize=0;swimlaneHead=0;swimlaneBody=0;fillColor=none;collapsible=0;dropTarget=0;points=[[0,0.5],[1,0.5]];portConstraint=eastwest;top=0;left=0;right=0;bottom=0;" parent="yB6PEHeClfCz39mA1kA1-144" vertex="1">
          <mxGeometry y="240" width="180" height="30" as="geometry" />
        </mxCell>
        <mxCell id="yB6PEHeClfCz39mA1kA1-293" value="integer" style="shape=partialRectangle;connectable=0;fillColor=none;top=0;left=0;bottom=0;right=0;editable=1;overflow=hidden;whiteSpace=wrap;html=1;" parent="yB6PEHeClfCz39mA1kA1-292" vertex="1">
          <mxGeometry width="48.11764705882359" height="30" as="geometry">
            <mxRectangle width="48.11764705882359" height="30" as="alternateBounds" />
          </mxGeometry>
        </mxCell>
        <mxCell id="yB6PEHeClfCz39mA1kA1-294" value="user_id" style="shape=partialRectangle;connectable=0;fillColor=none;top=0;left=0;bottom=0;right=0;align=left;spacingLeft=6;overflow=hidden;whiteSpace=wrap;html=1;" parent="yB6PEHeClfCz39mA1kA1-292" vertex="1">
          <mxGeometry x="48.11764705882359" width="131.8823529411764" height="30" as="geometry">
            <mxRectangle width="131.8823529411764" height="30" as="alternateBounds" />
          </mxGeometry>
        </mxCell>
        <mxCell id="yB6PEHeClfCz39mA1kA1-178" value="checklists" style="shape=table;startSize=30;container=1;collapsible=1;childLayout=tableLayout;fixedRows=1;rowLines=0;fontStyle=1;align=center;resizeLast=1;html=1;" parent="1" vertex="1">
          <mxGeometry x="962" y="-490.94" width="180" height="120" as="geometry" />
        </mxCell>
        <mxCell id="yB6PEHeClfCz39mA1kA1-179" value="" style="shape=tableRow;horizontal=0;startSize=0;swimlaneHead=0;swimlaneBody=0;fillColor=none;collapsible=0;dropTarget=0;points=[[0,0.5],[1,0.5]];portConstraint=eastwest;top=0;left=0;right=0;bottom=1;" parent="yB6PEHeClfCz39mA1kA1-178" vertex="1">
          <mxGeometry y="30" width="180" height="30" as="geometry" />
        </mxCell>
        <mxCell id="yB6PEHeClfCz39mA1kA1-180" value="PK" style="shape=partialRectangle;connectable=0;fillColor=none;top=0;left=0;bottom=0;right=0;fontStyle=1;overflow=hidden;whiteSpace=wrap;html=1;" parent="yB6PEHeClfCz39mA1kA1-179" vertex="1">
          <mxGeometry width="37.0877300061677" height="30" as="geometry">
            <mxRectangle width="37.0877300061677" height="30" as="alternateBounds" />
          </mxGeometry>
        </mxCell>
        <mxCell id="yB6PEHeClfCz39mA1kA1-181" value="id" style="shape=partialRectangle;connectable=0;fillColor=none;top=0;left=0;bottom=0;right=0;align=left;spacingLeft=6;fontStyle=5;overflow=hidden;whiteSpace=wrap;html=1;" parent="yB6PEHeClfCz39mA1kA1-179" vertex="1">
          <mxGeometry x="37.0877300061677" width="142.9122699938323" height="30" as="geometry">
            <mxRectangle width="142.9122699938323" height="30" as="alternateBounds" />
          </mxGeometry>
        </mxCell>
        <mxCell id="JpFCLJusEWWW7auqfoFQ-29" value="" style="shape=tableRow;horizontal=0;startSize=0;swimlaneHead=0;swimlaneBody=0;fillColor=none;collapsible=0;dropTarget=0;points=[[0,0.5],[1,0.5]];portConstraint=eastwest;top=0;left=0;right=0;bottom=0;" parent="yB6PEHeClfCz39mA1kA1-178" vertex="1">
          <mxGeometry y="60" width="180" height="30" as="geometry" />
        </mxCell>
        <mxCell id="JpFCLJusEWWW7auqfoFQ-30" value="string" style="shape=partialRectangle;connectable=0;fillColor=none;top=0;left=0;bottom=0;right=0;editable=1;overflow=hidden;whiteSpace=wrap;html=1;" parent="JpFCLJusEWWW7auqfoFQ-29" vertex="1">
          <mxGeometry width="37.0877300061677" height="30" as="geometry">
            <mxRectangle width="37.0877300061677" height="30" as="alternateBounds" />
          </mxGeometry>
        </mxCell>
        <mxCell id="JpFCLJusEWWW7auqfoFQ-31" value="title" style="shape=partialRectangle;connectable=0;fillColor=none;top=0;left=0;bottom=0;right=0;align=left;spacingLeft=6;overflow=hidden;whiteSpace=wrap;html=1;" parent="JpFCLJusEWWW7auqfoFQ-29" vertex="1">
          <mxGeometry x="37.0877300061677" width="142.9122699938323" height="30" as="geometry">
            <mxRectangle width="142.9122699938323" height="30" as="alternateBounds" />
          </mxGeometry>
        </mxCell>
        <mxCell id="yB6PEHeClfCz39mA1kA1-182" value="" style="shape=tableRow;horizontal=0;startSize=0;swimlaneHead=0;swimlaneBody=0;fillColor=none;collapsible=0;dropTarget=0;points=[[0,0.5],[1,0.5]];portConstraint=eastwest;top=0;left=0;right=0;bottom=0;" parent="yB6PEHeClfCz39mA1kA1-178" vertex="1">
          <mxGeometry y="90" width="180" height="30" as="geometry" />
        </mxCell>
        <mxCell id="yB6PEHeClfCz39mA1kA1-183" value="integer" style="shape=partialRectangle;connectable=0;fillColor=none;top=0;left=0;bottom=0;right=0;editable=1;overflow=hidden;whiteSpace=wrap;html=1;" parent="yB6PEHeClfCz39mA1kA1-182" vertex="1">
          <mxGeometry width="37.0877300061677" height="30" as="geometry">
            <mxRectangle width="37.0877300061677" height="30" as="alternateBounds" />
          </mxGeometry>
        </mxCell>
        <mxCell id="yB6PEHeClfCz39mA1kA1-184" value="user_id" style="shape=partialRectangle;connectable=0;fillColor=none;top=0;left=0;bottom=0;right=0;align=left;spacingLeft=6;overflow=hidden;whiteSpace=wrap;html=1;" parent="yB6PEHeClfCz39mA1kA1-182" vertex="1">
          <mxGeometry x="37.0877300061677" width="142.9122699938323" height="30" as="geometry">
            <mxRectangle width="142.9122699938323" height="30" as="alternateBounds" />
          </mxGeometry>
        </mxCell>
        <mxCell id="yB6PEHeClfCz39mA1kA1-217" value="categories" style="shape=table;startSize=30;container=1;collapsible=1;childLayout=tableLayout;fixedRows=1;rowLines=0;fontStyle=1;align=center;resizeLast=1;html=1;" parent="1" vertex="1">
          <mxGeometry x="707" y="-238" width="180" height="90" as="geometry" />
        </mxCell>
        <mxCell id="yB6PEHeClfCz39mA1kA1-218" value="" style="shape=tableRow;horizontal=0;startSize=0;swimlaneHead=0;swimlaneBody=0;fillColor=none;collapsible=0;dropTarget=0;points=[[0,0.5],[1,0.5]];portConstraint=eastwest;top=0;left=0;right=0;bottom=1;" parent="yB6PEHeClfCz39mA1kA1-217" vertex="1">
          <mxGeometry y="30" width="180" height="30" as="geometry" />
        </mxCell>
        <mxCell id="yB6PEHeClfCz39mA1kA1-219" value="PK" style="shape=partialRectangle;connectable=0;fillColor=none;top=0;left=0;bottom=0;right=0;fontStyle=1;overflow=hidden;whiteSpace=wrap;html=1;" parent="yB6PEHeClfCz39mA1kA1-218" vertex="1">
          <mxGeometry width="30" height="30" as="geometry">
            <mxRectangle width="30" height="30" as="alternateBounds" />
          </mxGeometry>
        </mxCell>
        <mxCell id="yB6PEHeClfCz39mA1kA1-220" value="id" style="shape=partialRectangle;connectable=0;fillColor=none;top=0;left=0;bottom=0;right=0;align=left;spacingLeft=6;fontStyle=5;overflow=hidden;whiteSpace=wrap;html=1;" parent="yB6PEHeClfCz39mA1kA1-218" vertex="1">
          <mxGeometry x="30" width="150" height="30" as="geometry">
            <mxRectangle width="150" height="30" as="alternateBounds" />
          </mxGeometry>
        </mxCell>
        <mxCell id="yB6PEHeClfCz39mA1kA1-221" value="" style="shape=tableRow;horizontal=0;startSize=0;swimlaneHead=0;swimlaneBody=0;fillColor=none;collapsible=0;dropTarget=0;points=[[0,0.5],[1,0.5]];portConstraint=eastwest;top=0;left=0;right=0;bottom=0;" parent="yB6PEHeClfCz39mA1kA1-217" vertex="1">
          <mxGeometry y="60" width="180" height="30" as="geometry" />
        </mxCell>
        <mxCell id="yB6PEHeClfCz39mA1kA1-222" value="string" style="shape=partialRectangle;connectable=0;fillColor=none;top=0;left=0;bottom=0;right=0;editable=1;overflow=hidden;whiteSpace=wrap;html=1;" parent="yB6PEHeClfCz39mA1kA1-221" vertex="1">
          <mxGeometry width="30" height="30" as="geometry">
            <mxRectangle width="30" height="30" as="alternateBounds" />
          </mxGeometry>
        </mxCell>
        <mxCell id="yB6PEHeClfCz39mA1kA1-223" value="name" style="shape=partialRectangle;connectable=0;fillColor=none;top=0;left=0;bottom=0;right=0;align=left;spacingLeft=6;overflow=hidden;whiteSpace=wrap;html=1;" parent="yB6PEHeClfCz39mA1kA1-221" vertex="1">
          <mxGeometry x="30" width="150" height="30" as="geometry">
            <mxRectangle width="150" height="30" as="alternateBounds" />
          </mxGeometry>
        </mxCell>
        <mxCell id="yB6PEHeClfCz39mA1kA1-243" value="seasons" style="shape=table;startSize=30;container=1;collapsible=1;childLayout=tableLayout;fixedRows=1;rowLines=0;fontStyle=1;align=center;resizeLast=1;html=1;" parent="1" vertex="1">
          <mxGeometry x="466" y="-66" width="180" height="90" as="geometry" />
        </mxCell>
        <mxCell id="yB6PEHeClfCz39mA1kA1-244" value="" style="shape=tableRow;horizontal=0;startSize=0;swimlaneHead=0;swimlaneBody=0;fillColor=none;collapsible=0;dropTarget=0;points=[[0,0.5],[1,0.5]];portConstraint=eastwest;top=0;left=0;right=0;bottom=1;" parent="yB6PEHeClfCz39mA1kA1-243" vertex="1">
          <mxGeometry y="30" width="180" height="30" as="geometry" />
        </mxCell>
        <mxCell id="yB6PEHeClfCz39mA1kA1-245" value="PK" style="shape=partialRectangle;connectable=0;fillColor=none;top=0;left=0;bottom=0;right=0;fontStyle=1;overflow=hidden;whiteSpace=wrap;html=1;" parent="yB6PEHeClfCz39mA1kA1-244" vertex="1">
          <mxGeometry width="30" height="30" as="geometry">
            <mxRectangle width="30" height="30" as="alternateBounds" />
          </mxGeometry>
        </mxCell>
        <mxCell id="yB6PEHeClfCz39mA1kA1-246" value="id" style="shape=partialRectangle;connectable=0;fillColor=none;top=0;left=0;bottom=0;right=0;align=left;spacingLeft=6;fontStyle=5;overflow=hidden;whiteSpace=wrap;html=1;" parent="yB6PEHeClfCz39mA1kA1-244" vertex="1">
          <mxGeometry x="30" width="150" height="30" as="geometry">
            <mxRectangle width="150" height="30" as="alternateBounds" />
          </mxGeometry>
        </mxCell>
        <mxCell id="yB6PEHeClfCz39mA1kA1-247" value="" style="shape=tableRow;horizontal=0;startSize=0;swimlaneHead=0;swimlaneBody=0;fillColor=none;collapsible=0;dropTarget=0;points=[[0,0.5],[1,0.5]];portConstraint=eastwest;top=0;left=0;right=0;bottom=0;" parent="yB6PEHeClfCz39mA1kA1-243" vertex="1">
          <mxGeometry y="60" width="180" height="30" as="geometry" />
        </mxCell>
        <mxCell id="yB6PEHeClfCz39mA1kA1-248" value="string" style="shape=partialRectangle;connectable=0;fillColor=none;top=0;left=0;bottom=0;right=0;editable=1;overflow=hidden;whiteSpace=wrap;html=1;" parent="yB6PEHeClfCz39mA1kA1-247" vertex="1">
          <mxGeometry width="30" height="30" as="geometry">
            <mxRectangle width="30" height="30" as="alternateBounds" />
          </mxGeometry>
        </mxCell>
        <mxCell id="yB6PEHeClfCz39mA1kA1-249" value="name" style="shape=partialRectangle;connectable=0;fillColor=none;top=0;left=0;bottom=0;right=0;align=left;spacingLeft=6;overflow=hidden;whiteSpace=wrap;html=1;" parent="yB6PEHeClfCz39mA1kA1-247" vertex="1">
          <mxGeometry x="30" width="150" height="30" as="geometry">
            <mxRectangle width="150" height="30" as="alternateBounds" />
          </mxGeometry>
        </mxCell>
        <mxCell id="yB6PEHeClfCz39mA1kA1-271" value="season_clothes" style="shape=table;startSize=30;container=1;collapsible=1;childLayout=tableLayout;fixedRows=1;rowLines=0;fontStyle=1;align=center;resizeLast=1;html=1;" parent="1" vertex="1">
          <mxGeometry x="462" y="-244" width="180" height="120" as="geometry" />
        </mxCell>
        <mxCell id="yB6PEHeClfCz39mA1kA1-272" value="" style="shape=tableRow;horizontal=0;startSize=0;swimlaneHead=0;swimlaneBody=0;fillColor=none;collapsible=0;dropTarget=0;points=[[0,0.5],[1,0.5]];portConstraint=eastwest;top=0;left=0;right=0;bottom=1;" parent="yB6PEHeClfCz39mA1kA1-271" vertex="1">
          <mxGeometry y="30" width="180" height="30" as="geometry" />
        </mxCell>
        <mxCell id="yB6PEHeClfCz39mA1kA1-273" value="PK" style="shape=partialRectangle;connectable=0;fillColor=none;top=0;left=0;bottom=0;right=0;fontStyle=1;overflow=hidden;whiteSpace=wrap;html=1;" parent="yB6PEHeClfCz39mA1kA1-272" vertex="1">
          <mxGeometry width="30" height="30" as="geometry">
            <mxRectangle width="30" height="30" as="alternateBounds" />
          </mxGeometry>
        </mxCell>
        <mxCell id="yB6PEHeClfCz39mA1kA1-274" value="id" style="shape=partialRectangle;connectable=0;fillColor=none;top=0;left=0;bottom=0;right=0;align=left;spacingLeft=6;fontStyle=5;overflow=hidden;whiteSpace=wrap;html=1;" parent="yB6PEHeClfCz39mA1kA1-272" vertex="1">
          <mxGeometry x="30" width="150" height="30" as="geometry">
            <mxRectangle width="150" height="30" as="alternateBounds" />
          </mxGeometry>
        </mxCell>
        <mxCell id="yB6PEHeClfCz39mA1kA1-275" value="" style="shape=tableRow;horizontal=0;startSize=0;swimlaneHead=0;swimlaneBody=0;fillColor=none;collapsible=0;dropTarget=0;points=[[0,0.5],[1,0.5]];portConstraint=eastwest;top=0;left=0;right=0;bottom=0;" parent="yB6PEHeClfCz39mA1kA1-271" vertex="1">
          <mxGeometry y="60" width="180" height="30" as="geometry" />
        </mxCell>
        <mxCell id="yB6PEHeClfCz39mA1kA1-276" value="integer" style="shape=partialRectangle;connectable=0;fillColor=none;top=0;left=0;bottom=0;right=0;editable=1;overflow=hidden;whiteSpace=wrap;html=1;" parent="yB6PEHeClfCz39mA1kA1-275" vertex="1">
          <mxGeometry width="30" height="30" as="geometry">
            <mxRectangle width="30" height="30" as="alternateBounds" />
          </mxGeometry>
        </mxCell>
        <mxCell id="yB6PEHeClfCz39mA1kA1-277" value="season_id" style="shape=partialRectangle;connectable=0;fillColor=none;top=0;left=0;bottom=0;right=0;align=left;spacingLeft=6;overflow=hidden;whiteSpace=wrap;html=1;" parent="yB6PEHeClfCz39mA1kA1-275" vertex="1">
          <mxGeometry x="30" width="150" height="30" as="geometry">
            <mxRectangle width="150" height="30" as="alternateBounds" />
          </mxGeometry>
        </mxCell>
        <mxCell id="yB6PEHeClfCz39mA1kA1-278" value="" style="shape=tableRow;horizontal=0;startSize=0;swimlaneHead=0;swimlaneBody=0;fillColor=none;collapsible=0;dropTarget=0;points=[[0,0.5],[1,0.5]];portConstraint=eastwest;top=0;left=0;right=0;bottom=0;" parent="yB6PEHeClfCz39mA1kA1-271" vertex="1">
          <mxGeometry y="90" width="180" height="30" as="geometry" />
        </mxCell>
        <mxCell id="yB6PEHeClfCz39mA1kA1-279" value="integer" style="shape=partialRectangle;connectable=0;fillColor=none;top=0;left=0;bottom=0;right=0;editable=1;overflow=hidden;whiteSpace=wrap;html=1;" parent="yB6PEHeClfCz39mA1kA1-278" vertex="1">
          <mxGeometry width="30" height="30" as="geometry">
            <mxRectangle width="30" height="30" as="alternateBounds" />
          </mxGeometry>
        </mxCell>
        <mxCell id="yB6PEHeClfCz39mA1kA1-280" value="cloth_id" style="shape=partialRectangle;connectable=0;fillColor=none;top=0;left=0;bottom=0;right=0;align=left;spacingLeft=6;overflow=hidden;whiteSpace=wrap;html=1;" parent="yB6PEHeClfCz39mA1kA1-278" vertex="1">
          <mxGeometry x="30" width="150" height="30" as="geometry">
            <mxRectangle width="150" height="30" as="alternateBounds" />
          </mxGeometry>
        </mxCell>
        <mxCell id="yB6PEHeClfCz39mA1kA1-284" value="" style="edgeStyle=entityRelationEdgeStyle;fontSize=12;html=1;endArrow=ERzeroToMany;startArrow=ERmandOne;rounded=0;startSize=8;endSize=8;curved=1;exitX=1;exitY=0.5;exitDx=0;exitDy=0;" parent="1" source="yB6PEHeClfCz39mA1kA1-172" target="yB6PEHeClfCz39mA1kA1-272" edge="1">
          <mxGeometry width="100" height="100" relative="1" as="geometry">
            <mxPoint x="549" y="-230" as="sourcePoint" />
            <mxPoint x="649" y="-330" as="targetPoint" />
            <Array as="points">
              <mxPoint x="545" y="-302" />
              <mxPoint x="413" y="-328" />
              <mxPoint x="593" y="-266" />
            </Array>
          </mxGeometry>
        </mxCell>
        <mxCell id="yB6PEHeClfCz39mA1kA1-285" value="" style="edgeStyle=entityRelationEdgeStyle;fontSize=12;html=1;endArrow=ERzeroToMany;startArrow=ERmandOne;rounded=0;startSize=8;endSize=8;curved=1;exitX=0.5;exitY=0;exitDx=0;exitDy=0;entryX=0.504;entryY=0.998;entryDx=0;entryDy=0;entryPerimeter=0;" parent="1" source="yB6PEHeClfCz39mA1kA1-243" target="yB6PEHeClfCz39mA1kA1-278" edge="1">
          <mxGeometry width="100" height="100" relative="1" as="geometry">
            <mxPoint x="681" y="-142" as="sourcePoint" />
            <mxPoint x="683" y="-49" as="targetPoint" />
            <Array as="points">
              <mxPoint x="595" y="-72" />
              <mxPoint x="675" y="-99" />
              <mxPoint x="723" y="-63" />
            </Array>
          </mxGeometry>
        </mxCell>
        <mxCell id="yB6PEHeClfCz39mA1kA1-315" value="&lt;p name=&quot;8b3bfaff-2ba2-4c7c-8612-52c020f51953&quot; id=&quot;8b3bfaff-2ba2-4c7c-8612-52c020f51953&quot; style=&quot;background-repeat: no-repeat; box-sizing: inherit; padding: 0px; margin: 36px 0px; border: 0px solid; font-size: var(--font-size-lg); line-height: 2.25rem; color: rgb(8, 19, 26); font-family: YakuHanJPs, &amp;quot;Segoe UI&amp;quot;, Arial, Meiryo, sans-serif; font-style: normal; font-variant-ligatures: normal; font-variant-caps: normal; font-weight: 400; letter-spacing: normal; orphans: 2; text-align: start; text-indent: 0px; text-transform: none; widows: 2; word-spacing: 0px; -webkit-text-stroke-width: 0px; white-space: normal; background-color: rgb(255, 255, 255); text-decoration-thickness: initial; text-decoration-style: initial; text-decoration-color: initial;&quot;&gt;������衣類　一つでもチェックしたら廃棄を推奨&lt;/p&gt;&lt;p name=&quot;8b3bfaff-2ba2-4c7c-8612-52c020f51953&quot; id=&quot;8b3bfaff-2ba2-4c7c-8612-52c020f51953&quot; style=&quot;background-repeat: no-repeat; box-sizing: inherit; padding: 0px; margin: 36px 0px; border: 0px solid; font-size: var(--font-size-lg); line-height: 2.25rem; color: rgb(8, 19, 26); font-family: YakuHanJPs, &amp;quot;Segoe UI&amp;quot;, Arial, Meiryo, sans-serif; font-style: normal; font-variant-ligatures: normal; font-variant-caps: normal; font-weight: 400; letter-spacing: normal; orphans: 2; text-align: start; text-indent: 0px; text-transform: none; widows: 2; word-spacing: 0px; -webkit-text-stroke-width: 0px; white-space: normal; background-color: rgb(255, 255, 255); text-decoration-thickness: initial; text-decoration-style: initial; text-decoration-color: initial;&quot;&gt;季節ごとに一覧で分別、大分類　カテゴリーごとに中分類　チェックリストはカテゴリに応じたチェックリストを表示&lt;/p&gt;&lt;p name=&quot;8b3bfaff-2ba2-4c7c-8612-52c020f51953&quot; id=&quot;8b3bfaff-2ba2-4c7c-8612-52c020f51953&quot; style=&quot;background-repeat: no-repeat; box-sizing: inherit; padding: 0px; margin: 36px 0px; border: 0px solid; font-size: var(--font-size-lg); line-height: 2.25rem; color: rgb(8, 19, 26); font-family: YakuHanJPs, &amp;quot;Segoe UI&amp;quot;, Arial, Meiryo, sans-serif; font-style: normal; font-variant-ligatures: normal; font-variant-caps: normal; font-weight: 400; letter-spacing: normal; orphans: 2; text-align: start; text-indent: 0px; text-transform: none; widows: 2; word-spacing: 0px; -webkit-text-stroke-width: 0px; white-space: normal; background-color: rgb(255, 255, 255); text-decoration-thickness: initial; text-decoration-style: initial; text-decoration-color: initial;&quot;&gt;◻︎汚れやほつれがある&lt;br style=&quot;background-repeat: no-repeat; box-sizing: inherit; padding: 0px; margin: 0px; border: 0px solid;&quot;&gt;◻︎毛玉が取れない&lt;br style=&quot;background-repeat: no-repeat; box-sizing: inherit; padding: 0px; margin: 0px; border: 0px solid;&quot;&gt;◻︎着心地が悪い������&lt;br style=&quot;background-repeat: no-repeat; box-sizing: inherit; padding: 0px; margin: 0px; border: 0px solid;&quot;&gt;◻︎1年以上着ていない������&lt;br style=&quot;background-repeat: no-repeat; box-sizing: inherit; padding: 0px; margin: 0px; border: 0px solid;&quot;&gt;◻︎合わせるのが難しい������&lt;br style=&quot;background-repeat: no-repeat; box-sizing: inherit; padding: 0px; margin: 0px; border: 0px solid;&quot;&gt;◻︎シワシワになりやすい������&lt;br style=&quot;background-repeat: no-repeat; box-sizing: inherit; padding: 0px; margin: 0px; border: 0px solid;&quot;&gt;◻︎体型が変わって着れない������&lt;br style=&quot;background-repeat: no-repeat; box-sizing: inherit; padding: 0px; margin: 0px; border: 0px solid;&quot;&gt;◻︎高かったからが理由で手放せない������&lt;br style=&quot;background-repeat: no-repeat; box-sizing: inherit; padding: 0px; margin: 0px; border: 0px solid;&quot;&gt;◻︎着ていてもテンションが上がらない������&lt;/p&gt;&lt;p name=&quot;ff2c3047-8825-47b2-8666-e9275361cc56&quot; id=&quot;ff2c3047-8825-47b2-8666-e9275361cc56&quot; style=&quot;background-repeat: no-repeat; box-sizing: inherit; padding: 0px; margin: 36px 0px; border: 0px solid; font-size: var(--font-size-lg); line-height: 2.25rem; color: rgb(8, 19, 26); font-family: YakuHanJPs, &amp;quot;Segoe UI&amp;quot;, Arial, Meiryo, sans-serif; font-style: normal; font-variant-ligatures: normal; font-variant-caps: normal; font-weight: 400; letter-spacing: normal; orphans: 2; text-align: start; text-indent: 0px; text-transform: none; widows: 2; word-spacing: 0px; -webkit-text-stroke-width: 0px; white-space: normal; background-color: rgb(255, 255, 255); text-decoration-thickness: initial; text-decoration-style: initial; text-decoration-color: initial;&quot;&gt;������身につけるもの������&lt;br style=&quot;background-repeat: no-repeat; box-sizing: inherit; padding: 0px; margin: 0px; border: 0px solid;&quot;&gt;◻︎片方しかないアクセサリー&lt;br style=&quot;background-repeat: no-repeat; box-sizing: inherit; padding: 0px; margin: 0px; border: 0px solid;&quot;&gt;◻︎お気に入りじゃないアクセサリー������&lt;br style=&quot;background-repeat: no-repeat; box-sizing: inherit; padding: 0px; margin: 0px; border: 0px solid;&quot;&gt;◻︎錆びているアクセサリー&lt;br style=&quot;background-repeat: no-repeat; box-sizing: inherit; padding: 0px; margin: 0px; border: 0px solid;&quot;&gt;◻︎使わない眼鏡やサングラス������&lt;/p&gt;&lt;p name=&quot;d61e7d74-513c-4b34-a456-04004f3029c5&quot; id=&quot;d61e7d74-513c-4b34-a456-04004f3029c5&quot; style=&quot;background-repeat: no-repeat; box-sizing: inherit; padding: 0px; margin: 36px 0px; border: 0px solid; font-size: var(--font-size-lg); line-height: 2.25rem; color: rgb(8, 19, 26); font-family: YakuHanJPs, &amp;quot;Segoe UI&amp;quot;, Arial, Meiryo, sans-serif; font-style: normal; font-variant-ligatures: normal; font-variant-caps: normal; font-weight: 400; letter-spacing: normal; orphans: 2; text-align: start; text-indent: 0px; text-transform: none; widows: 2; word-spacing: 0px; -webkit-text-stroke-width: 0px; white-space: normal; background-color: rgb(255, 255, 255); text-decoration-thickness: initial; text-decoration-style: initial; text-decoration-color: initial;&quot;&gt;������その他������&lt;br style=&quot;background-repeat: no-repeat; box-sizing: inherit; padding: 0px; margin: 0px; border: 0px solid;&quot;&gt;◻︎古くなったハンカチ&lt;br style=&quot;background-repeat: no-repeat; box-sizing: inherit; padding: 0px; margin: 0px; border: 0px solid;&quot;&gt;◻︎使ってないベルト������&lt;br style=&quot;background-repeat: no-repeat; box-sizing: inherit; padding: 0px; margin: 0px; border: 0px solid;&quot;&gt;◻︎使っていない帽子、マフラー、手袋������&lt;br style=&quot;background-repeat: no-repeat; box-sizing: inherit; padding: 0px; margin: 0px; border: 0px solid;&quot;&gt;◻︎必要以上のタイツ・ストッキング・靴下&lt;br style=&quot;background-repeat: no-repeat; box-sizing: inherit; padding: 0px; margin: 0px; border: 0px solid;&quot;&gt;◻︎伝染してるタイツやストッキング&lt;br style=&quot;background-repeat: no-repeat; box-sizing: inherit; padding: 0px; margin: 0px; border: 0px solid;&quot;&gt;◻︎古すぎるヒートテック&lt;/p&gt;&lt;p name=&quot;c6e6f39e-72a9-452d-b8cf-af2f1fb0c34c&quot; id=&quot;c6e6f39e-72a9-452d-b8cf-af2f1fb0c34c&quot; style=&quot;background-repeat: no-repeat; box-sizing: inherit; padding: 0px; margin: 36px 0px; border: 0px solid; font-size: var(--font-size-lg); line-height: 2.25rem; color: rgb(8, 19, 26); font-family: YakuHanJPs, &amp;quot;Segoe UI&amp;quot;, Arial, Meiryo, sans-serif; font-style: normal; font-variant-ligatures: normal; font-variant-caps: normal; font-weight: 400; letter-spacing: normal; orphans: 2; text-align: start; text-indent: 0px; text-transform: none; widows: 2; word-spacing: 0px; -webkit-text-stroke-width: 0px; white-space: normal; background-color: rgb(255, 255, 255); text-decoration-thickness: initial; text-decoration-style: initial; text-decoration-color: initial;&quot;&gt;������カバン������&lt;br style=&quot;background-repeat: no-repeat; box-sizing: inherit; padding: 0px; margin: 0px; border: 0px solid;&quot;&gt;◻︎1年以上使ってない������&lt;br style=&quot;background-repeat: no-repeat; box-sizing: inherit; padding: 0px; margin: 0px; border: 0px solid;&quot;&gt;◻︎デザインや用途が似ている������&lt;br style=&quot;background-repeat: no-repeat; box-sizing: inherit; padding: 0px; margin: 0px; border: 0px solid;&quot;&gt;◻︎使い勝手が悪い������&lt;/p&gt;" style="text;whiteSpace=wrap;html=1;" parent="1" vertex="1">
          <mxGeometry x="-355" y="-1564" width="260" height="1302" as="geometry" />
        </mxCell>
        <mxCell id="yB6PEHeClfCz39mA1kA1-316" value="checklist_items" style="shape=table;startSize=30;container=1;collapsible=1;childLayout=tableLayout;fixedRows=1;rowLines=0;fontStyle=1;align=center;resizeLast=1;html=1;" parent="1" vertex="1">
          <mxGeometry x="1228" y="-259" width="182" height="90" as="geometry" />
        </mxCell>
        <mxCell id="yB6PEHeClfCz39mA1kA1-317" value="" style="shape=tableRow;horizontal=0;startSize=0;swimlaneHead=0;swimlaneBody=0;fillColor=none;collapsible=0;dropTarget=0;points=[[0,0.5],[1,0.5]];portConstraint=eastwest;top=0;left=0;right=0;bottom=1;" parent="yB6PEHeClfCz39mA1kA1-316" vertex="1">
          <mxGeometry y="30" width="182" height="30" as="geometry" />
        </mxCell>
        <mxCell id="yB6PEHeClfCz39mA1kA1-318" value="PK" style="shape=partialRectangle;connectable=0;fillColor=none;top=0;left=0;bottom=0;right=0;fontStyle=1;overflow=hidden;whiteSpace=wrap;html=1;" parent="yB6PEHeClfCz39mA1kA1-317" vertex="1">
          <mxGeometry width="30" height="30" as="geometry">
            <mxRectangle width="30" height="30" as="alternateBounds" />
          </mxGeometry>
        </mxCell>
        <mxCell id="yB6PEHeClfCz39mA1kA1-319" value="id" style="shape=partialRectangle;connectable=0;fillColor=none;top=0;left=0;bottom=0;right=0;align=left;spacingLeft=6;fontStyle=5;overflow=hidden;whiteSpace=wrap;html=1;" parent="yB6PEHeClfCz39mA1kA1-317" vertex="1">
          <mxGeometry x="30" width="152" height="30" as="geometry">
            <mxRectangle width="152" height="30" as="alternateBounds" />
          </mxGeometry>
        </mxCell>
        <mxCell id="yB6PEHeClfCz39mA1kA1-320" value="" style="shape=tableRow;horizontal=0;startSize=0;swimlaneHead=0;swimlaneBody=0;fillColor=none;collapsible=0;dropTarget=0;points=[[0,0.5],[1,0.5]];portConstraint=eastwest;top=0;left=0;right=0;bottom=0;" parent="yB6PEHeClfCz39mA1kA1-316" vertex="1">
          <mxGeometry y="60" width="182" height="30" as="geometry" />
        </mxCell>
        <mxCell id="yB6PEHeClfCz39mA1kA1-321" value="string" style="shape=partialRectangle;connectable=0;fillColor=none;top=0;left=0;bottom=0;right=0;editable=1;overflow=hidden;whiteSpace=wrap;html=1;" parent="yB6PEHeClfCz39mA1kA1-320" vertex="1">
          <mxGeometry width="30" height="30" as="geometry">
            <mxRectangle width="30" height="30" as="alternateBounds" />
          </mxGeometry>
        </mxCell>
        <mxCell id="yB6PEHeClfCz39mA1kA1-322" value="name" style="shape=partialRectangle;connectable=0;fillColor=none;top=0;left=0;bottom=0;right=0;align=left;spacingLeft=6;overflow=hidden;whiteSpace=wrap;html=1;" parent="yB6PEHeClfCz39mA1kA1-320" vertex="1">
          <mxGeometry x="30" width="152" height="30" as="geometry">
            <mxRectangle width="152" height="30" as="alternateBounds" />
          </mxGeometry>
        </mxCell>
        <mxCell id="yB6PEHeClfCz39mA1kA1-329" value="" style="edgeStyle=entityRelationEdgeStyle;fontSize=12;html=1;endArrow=ERzeroToMany;startArrow=ERmandOne;rounded=0;startSize=8;endSize=8;curved=1;exitX=0.248;exitY=1.209;exitDx=0;exitDy=0;exitPerimeter=0;entryX=0.5;entryY=0;entryDx=0;entryDy=0;" parent="1" source="yB6PEHeClfCz39mA1kA1-182" edge="1" target="iuhtac6m8BEkXEGGC5YQ-1">
          <mxGeometry width="100" height="100" relative="1" as="geometry">
            <mxPoint x="1175" y="-452" as="sourcePoint" />
            <mxPoint x="1251" y="-331" as="targetPoint" />
            <Array as="points">
              <mxPoint x="981" y="-605" />
              <mxPoint x="1008.1600000000001" y="-120.88999999999999" />
              <mxPoint x="1590" y="-602" />
              <mxPoint x="1056.16" y="-84.88999999999999" />
            </Array>
          </mxGeometry>
        </mxCell>
        <mxCell id="yB6PEHeClfCz39mA1kA1-331" value="season_categories" style="shape=table;startSize=30;container=1;collapsible=1;childLayout=tableLayout;fixedRows=1;rowLines=0;fontStyle=1;align=center;resizeLast=1;html=1;" parent="1" vertex="1">
          <mxGeometry x="707" y="-105" width="180" height="120" as="geometry" />
        </mxCell>
        <mxCell id="yB6PEHeClfCz39mA1kA1-332" value="" style="shape=tableRow;horizontal=0;startSize=0;swimlaneHead=0;swimlaneBody=0;fillColor=none;collapsible=0;dropTarget=0;points=[[0,0.5],[1,0.5]];portConstraint=eastwest;top=0;left=0;right=0;bottom=1;" parent="yB6PEHeClfCz39mA1kA1-331" vertex="1">
          <mxGeometry y="30" width="180" height="30" as="geometry" />
        </mxCell>
        <mxCell id="yB6PEHeClfCz39mA1kA1-333" value="PK" style="shape=partialRectangle;connectable=0;fillColor=none;top=0;left=0;bottom=0;right=0;fontStyle=1;overflow=hidden;whiteSpace=wrap;html=1;" parent="yB6PEHeClfCz39mA1kA1-332" vertex="1">
          <mxGeometry width="30" height="30" as="geometry">
            <mxRectangle width="30" height="30" as="alternateBounds" />
          </mxGeometry>
        </mxCell>
        <mxCell id="yB6PEHeClfCz39mA1kA1-334" value="id" style="shape=partialRectangle;connectable=0;fillColor=none;top=0;left=0;bottom=0;right=0;align=left;spacingLeft=6;fontStyle=5;overflow=hidden;whiteSpace=wrap;html=1;" parent="yB6PEHeClfCz39mA1kA1-332" vertex="1">
          <mxGeometry x="30" width="150" height="30" as="geometry">
            <mxRectangle width="150" height="30" as="alternateBounds" />
          </mxGeometry>
        </mxCell>
        <mxCell id="yB6PEHeClfCz39mA1kA1-335" value="" style="shape=tableRow;horizontal=0;startSize=0;swimlaneHead=0;swimlaneBody=0;fillColor=none;collapsible=0;dropTarget=0;points=[[0,0.5],[1,0.5]];portConstraint=eastwest;top=0;left=0;right=0;bottom=0;" parent="yB6PEHeClfCz39mA1kA1-331" vertex="1">
          <mxGeometry y="60" width="180" height="30" as="geometry" />
        </mxCell>
        <mxCell id="yB6PEHeClfCz39mA1kA1-336" value="intege" style="shape=partialRectangle;connectable=0;fillColor=none;top=0;left=0;bottom=0;right=0;editable=1;overflow=hidden;whiteSpace=wrap;html=1;" parent="yB6PEHeClfCz39mA1kA1-335" vertex="1">
          <mxGeometry width="30" height="30" as="geometry">
            <mxRectangle width="30" height="30" as="alternateBounds" />
          </mxGeometry>
        </mxCell>
        <mxCell id="yB6PEHeClfCz39mA1kA1-337" value="season_id" style="shape=partialRectangle;connectable=0;fillColor=none;top=0;left=0;bottom=0;right=0;align=left;spacingLeft=6;overflow=hidden;whiteSpace=wrap;html=1;" parent="yB6PEHeClfCz39mA1kA1-335" vertex="1">
          <mxGeometry x="30" width="150" height="30" as="geometry">
            <mxRectangle width="150" height="30" as="alternateBounds" />
          </mxGeometry>
        </mxCell>
        <mxCell id="yB6PEHeClfCz39mA1kA1-338" value="" style="shape=tableRow;horizontal=0;startSize=0;swimlaneHead=0;swimlaneBody=0;fillColor=none;collapsible=0;dropTarget=0;points=[[0,0.5],[1,0.5]];portConstraint=eastwest;top=0;left=0;right=0;bottom=0;" parent="yB6PEHeClfCz39mA1kA1-331" vertex="1">
          <mxGeometry y="90" width="180" height="30" as="geometry" />
        </mxCell>
        <mxCell id="yB6PEHeClfCz39mA1kA1-339" value="integer" style="shape=partialRectangle;connectable=0;fillColor=none;top=0;left=0;bottom=0;right=0;editable=1;overflow=hidden;whiteSpace=wrap;html=1;" parent="yB6PEHeClfCz39mA1kA1-338" vertex="1">
          <mxGeometry width="30" height="30" as="geometry">
            <mxRectangle width="30" height="30" as="alternateBounds" />
          </mxGeometry>
        </mxCell>
        <mxCell id="yB6PEHeClfCz39mA1kA1-340" value="category_id" style="shape=partialRectangle;connectable=0;fillColor=none;top=0;left=0;bottom=0;right=0;align=left;spacingLeft=6;overflow=hidden;whiteSpace=wrap;html=1;" parent="yB6PEHeClfCz39mA1kA1-338" vertex="1">
          <mxGeometry x="30" width="150" height="30" as="geometry">
            <mxRectangle width="150" height="30" as="alternateBounds" />
          </mxGeometry>
        </mxCell>
        <mxCell id="yB6PEHeClfCz39mA1kA1-344" value="" style="edgeStyle=entityRelationEdgeStyle;fontSize=12;html=1;endArrow=ERzeroToMany;startArrow=ERmandOne;rounded=0;startSize=8;endSize=8;curved=1;exitX=1;exitY=0.5;exitDx=0;exitDy=0;entryX=0;entryY=0.5;entryDx=0;entryDy=0;" parent="1" source="yB6PEHeClfCz39mA1kA1-244" target="yB6PEHeClfCz39mA1kA1-332" edge="1">
          <mxGeometry width="100" height="100" relative="1" as="geometry">
            <mxPoint x="745" y="133" as="sourcePoint" />
            <mxPoint x="746" y="10" as="targetPoint" />
            <Array as="points">
              <mxPoint x="788" y="62" />
              <mxPoint x="868" y="35" />
              <mxPoint x="916" y="71" />
              <mxPoint x="716" y="212" />
            </Array>
          </mxGeometry>
        </mxCell>
        <mxCell id="yB6PEHeClfCz39mA1kA1-345" value="" style="edgeStyle=entityRelationEdgeStyle;fontSize=12;html=1;endArrow=ERzeroToMany;startArrow=ERmandOne;rounded=0;startSize=8;endSize=8;curved=1;entryX=0.5;entryY=0;entryDx=0;entryDy=0;exitX=0.48;exitY=1.143;exitDx=0;exitDy=0;exitPerimeter=0;" parent="1" source="yB6PEHeClfCz39mA1kA1-221" target="yB6PEHeClfCz39mA1kA1-331" edge="1">
          <mxGeometry width="100" height="100" relative="1" as="geometry">
            <mxPoint x="1034" y="61" as="sourcePoint" />
            <mxPoint x="992" y="162" as="targetPoint" />
            <Array as="points">
              <mxPoint x="1059" y="54" />
              <mxPoint x="1034" y="214" />
              <mxPoint x="1114" y="187" />
              <mxPoint x="933" y="40" />
              <mxPoint x="1162" y="223" />
            </Array>
          </mxGeometry>
        </mxCell>
        <mxCell id="yB6PEHeClfCz39mA1kA1-346" style="edgeStyle=none;curved=1;rounded=0;orthogonalLoop=1;jettySize=auto;html=1;exitX=1;exitY=0;exitDx=0;exitDy=0;fontSize=12;startSize=8;endSize=8;" parent="1" edge="1">
          <mxGeometry relative="1" as="geometry">
            <mxPoint x="1183" y="-536" as="sourcePoint" />
            <mxPoint x="1183" y="-536" as="targetPoint" />
          </mxGeometry>
        </mxCell>
        <mxCell id="yB6PEHeClfCz39mA1kA1-347" value="" style="edgeStyle=entityRelationEdgeStyle;fontSize=12;html=1;endArrow=ERzeroToMany;startArrow=ERmandOne;rounded=0;startSize=8;endSize=8;curved=1;exitX=0;exitY=0.5;exitDx=0;exitDy=0;entryX=1;entryY=0.5;entryDx=0;entryDy=0;" parent="1" source="yB6PEHeClfCz39mA1kA1-63" target="yB6PEHeClfCz39mA1kA1-145" edge="1">
          <mxGeometry width="100" height="100" relative="1" as="geometry">
            <mxPoint x="941" y="-559" as="sourcePoint" />
            <mxPoint x="952" y="-647" as="targetPoint" />
            <Array as="points">
              <mxPoint x="595" y="-252" />
              <mxPoint x="643" y="-216" />
              <mxPoint x="644" y="-477" />
            </Array>
          </mxGeometry>
        </mxCell>
        <mxCell id="E2rSFJpd713UINH2e3kA-1" value="&lt;div style=&quot;color: #cccccc;background-color: #1f1f1f;font-family: Consolas, &#39;Courier New&#39;, monospace;font-weight: normal;font-size: 14px;line-height: 19px;white-space: pre;&quot;&gt;&lt;div&gt;&lt;span style=&quot;color: #cccccc;&quot;&gt;������ （）&lt;/span&gt;&lt;/div&gt;&lt;div&gt;&lt;span style=&quot;color: #cccccc;&quot;&gt;（&lt;/span&gt;&lt;span style=&quot;color: #4fc1ff;&quot;&gt;Hats&lt;/span&gt;&lt;span style=&quot;color: #cccccc;&quot;&gt;）&lt;/span&gt;&lt;/div&gt;&lt;br&gt;&lt;div&gt;&lt;span style=&quot;color: #cccccc;&quot;&gt;キャップ&lt;/span&gt;&lt;/div&gt;&lt;div&gt;&lt;span style=&quot;color: #cccccc;&quot;&gt;ハット&lt;/span&gt;&lt;/div&gt;&lt;div&gt;&lt;span style=&quot;color: #cccccc;&quot;&gt;ニット帽&lt;/span&gt;&lt;/div&gt;&lt;div&gt;&lt;span style=&quot;color: #cccccc;&quot;&gt;ベレー帽&lt;/span&gt;&lt;/div&gt;&lt;div&gt;&lt;span style=&quot;color: #cccccc;&quot;&gt;（）&lt;/span&gt;&lt;/div&gt;&lt;br&gt;&lt;br&gt;&lt;div&gt;&lt;span style=&quot;color: #cccccc;&quot;&gt;腕時計&lt;/span&gt;&lt;/div&gt;&lt;div&gt;&lt;span style=&quot;color: #cccccc;&quot;&gt;ネックレス&lt;/span&gt;&lt;/div&gt;&lt;div&gt;&lt;span style=&quot;color: #cccccc;&quot;&gt;指輪（リング）&lt;/span&gt;&lt;/div&gt;&lt;div&gt;&lt;span style=&quot;color: #cccccc;&quot;&gt;ブレスレット&lt;/span&gt;&lt;/div&gt;&lt;div&gt;&lt;span style=&quot;color: #cccccc;&quot;&gt;ピアス &lt;/span&gt;&lt;span style=&quot;color: #d4d4d4;&quot;&gt;/&lt;/span&gt;&lt;span style=&quot;color: #cccccc;&quot;&gt; イヤリング&lt;/span&gt;&lt;/div&gt;&lt;div&gt;&lt;span style=&quot;color: #cccccc;&quot;&gt;サングラス・メガネ（&lt;/span&gt;&lt;span style=&quot;color: #4fc1ff;&quot;&gt;Sunglasses&lt;/span&gt;&lt;span style=&quot;color: #cccccc;&quot;&gt; &lt;/span&gt;&lt;span style=&quot;color: #d4d4d4;&quot;&gt;&amp;amp;&lt;/span&gt;&lt;span style=&quot;color: #cccccc;&quot;&gt; &lt;/span&gt;&lt;span style=&quot;color: #4fc1ff;&quot;&gt;Glasses&lt;/span&gt;&lt;span style=&quot;color: #cccccc;&quot;&gt;）&lt;/span&gt;&lt;/div&gt;&lt;br&gt;&lt;div&gt;&lt;span style=&quot;color: #cccccc;&quot;&gt;������ の身につけるアイテム（）&lt;/span&gt;&lt;/div&gt;&lt;br&gt;&lt;div&gt;&lt;span style=&quot;color: #cccccc;&quot;&gt;靴下 &lt;/span&gt;&lt;span style=&quot;color: #d4d4d4;&quot;&gt;/&lt;/span&gt;&lt;span style=&quot;color: #cccccc;&quot;&gt; &lt;/span&gt;&lt;/div&gt;&lt;br&gt;&lt;/div&gt;" style="text;whiteSpace=wrap;html=1;" parent="1" vertex="1">
          <mxGeometry x="-922.3333435058594" y="-526" width="336" height="421" as="geometry" />
        </mxCell>
        <mxCell id="okI_72JLHStw_wJ2T6ma-4" value="" style="edgeStyle=entityRelationEdgeStyle;fontSize=12;html=1;endArrow=ERoneToMany;rounded=0;startSize=8;endSize=8;curved=1;exitX=1;exitY=0.5;exitDx=0;exitDy=0;entryX=0;entryY=0.5;entryDx=0;entryDy=0;" parent="1" source="yB6PEHeClfCz39mA1kA1-60" target="JpFCLJusEWWW7auqfoFQ-29" edge="1">
          <mxGeometry width="100" height="100" relative="1" as="geometry">
            <mxPoint x="938" y="-521.01" as="sourcePoint" />
            <mxPoint x="1172" y="-587" as="targetPoint" />
          </mxGeometry>
        </mxCell>
        <mxCell id="Aw1wOn6VcAcYNDQoZttc-1" value="Favorite" style="shape=table;startSize=30;container=1;collapsible=1;childLayout=tableLayout;fixedRows=1;rowLines=0;fontStyle=1;align=center;resizeLast=1;html=1;" parent="1" vertex="1">
          <mxGeometry x="620" y="-770" width="180" height="120" as="geometry" />
        </mxCell>
        <mxCell id="Aw1wOn6VcAcYNDQoZttc-2" value="" style="shape=tableRow;horizontal=0;startSize=0;swimlaneHead=0;swimlaneBody=0;fillColor=none;collapsible=0;dropTarget=0;points=[[0,0.5],[1,0.5]];portConstraint=eastwest;top=0;left=0;right=0;bottom=1;" parent="Aw1wOn6VcAcYNDQoZttc-1" vertex="1">
          <mxGeometry y="30" width="180" height="30" as="geometry" />
        </mxCell>
        <mxCell id="Aw1wOn6VcAcYNDQoZttc-3" value="PK" style="shape=partialRectangle;connectable=0;fillColor=none;top=0;left=0;bottom=0;right=0;fontStyle=1;overflow=hidden;whiteSpace=wrap;html=1;" parent="Aw1wOn6VcAcYNDQoZttc-2" vertex="1">
          <mxGeometry width="30" height="30" as="geometry">
            <mxRectangle width="30" height="30" as="alternateBounds" />
          </mxGeometry>
        </mxCell>
        <mxCell id="Aw1wOn6VcAcYNDQoZttc-4" value="id" style="shape=partialRectangle;connectable=0;fillColor=none;top=0;left=0;bottom=0;right=0;align=left;spacingLeft=6;fontStyle=5;overflow=hidden;whiteSpace=wrap;html=1;" parent="Aw1wOn6VcAcYNDQoZttc-2" vertex="1">
          <mxGeometry x="30" width="150" height="30" as="geometry">
            <mxRectangle width="150" height="30" as="alternateBounds" />
          </mxGeometry>
        </mxCell>
        <mxCell id="Aw1wOn6VcAcYNDQoZttc-5" value="" style="shape=tableRow;horizontal=0;startSize=0;swimlaneHead=0;swimlaneBody=0;fillColor=none;collapsible=0;dropTarget=0;points=[[0,0.5],[1,0.5]];portConstraint=eastwest;top=0;left=0;right=0;bottom=0;" parent="Aw1wOn6VcAcYNDQoZttc-1" vertex="1">
          <mxGeometry y="60" width="180" height="30" as="geometry" />
        </mxCell>
        <mxCell id="Aw1wOn6VcAcYNDQoZttc-6" value="integer" style="shape=partialRectangle;connectable=0;fillColor=none;top=0;left=0;bottom=0;right=0;editable=1;overflow=hidden;whiteSpace=wrap;html=1;" parent="Aw1wOn6VcAcYNDQoZttc-5" vertex="1">
          <mxGeometry width="30" height="30" as="geometry">
            <mxRectangle width="30" height="30" as="alternateBounds" />
          </mxGeometry>
        </mxCell>
        <mxCell id="Aw1wOn6VcAcYNDQoZttc-7" value="user_id" style="shape=partialRectangle;connectable=0;fillColor=none;top=0;left=0;bottom=0;right=0;align=left;spacingLeft=6;overflow=hidden;whiteSpace=wrap;html=1;" parent="Aw1wOn6VcAcYNDQoZttc-5" vertex="1">
          <mxGeometry x="30" width="150" height="30" as="geometry">
            <mxRectangle width="150" height="30" as="alternateBounds" />
          </mxGeometry>
        </mxCell>
        <mxCell id="Aw1wOn6VcAcYNDQoZttc-8" value="" style="shape=tableRow;horizontal=0;startSize=0;swimlaneHead=0;swimlaneBody=0;fillColor=none;collapsible=0;dropTarget=0;points=[[0,0.5],[1,0.5]];portConstraint=eastwest;top=0;left=0;right=0;bottom=0;" parent="Aw1wOn6VcAcYNDQoZttc-1" vertex="1">
          <mxGeometry y="90" width="180" height="30" as="geometry" />
        </mxCell>
        <mxCell id="Aw1wOn6VcAcYNDQoZttc-9" value="inteer" style="shape=partialRectangle;connectable=0;fillColor=none;top=0;left=0;bottom=0;right=0;editable=1;overflow=hidden;whiteSpace=wrap;html=1;" parent="Aw1wOn6VcAcYNDQoZttc-8" vertex="1">
          <mxGeometry width="30" height="30" as="geometry">
            <mxRectangle width="30" height="30" as="alternateBounds" />
          </mxGeometry>
        </mxCell>
        <mxCell id="Aw1wOn6VcAcYNDQoZttc-10" value="cloth_id" style="shape=partialRectangle;connectable=0;fillColor=none;top=0;left=0;bottom=0;right=0;align=left;spacingLeft=6;overflow=hidden;whiteSpace=wrap;html=1;" parent="Aw1wOn6VcAcYNDQoZttc-8" vertex="1">
          <mxGeometry x="30" width="150" height="30" as="geometry">
            <mxRectangle width="150" height="30" as="alternateBounds" />
          </mxGeometry>
        </mxCell>
        <mxCell id="Aw1wOn6VcAcYNDQoZttc-14" value="" style="edgeStyle=entityRelationEdgeStyle;fontSize=12;html=1;endArrow=ERzeroToMany;startArrow=ERzeroToOne;rounded=0;startSize=8;endSize=8;curved=1;exitX=0.5;exitY=0;exitDx=0;exitDy=0;entryX=1;entryY=0.5;entryDx=0;entryDy=0;" parent="1" target="Aw1wOn6VcAcYNDQoZttc-5" edge="1" source="yB6PEHeClfCz39mA1kA1-56">
          <mxGeometry width="100" height="100" relative="1" as="geometry">
            <mxPoint x="836" y="-569.0000000000002" as="sourcePoint" />
            <mxPoint x="883" y="-817" as="targetPoint" />
            <Array as="points">
              <mxPoint x="804" y="-761" />
            </Array>
          </mxGeometry>
        </mxCell>
        <mxCell id="Aw1wOn6VcAcYNDQoZttc-16" value="" style="edgeStyle=entityRelationEdgeStyle;fontSize=12;html=1;endArrow=ERzeroToMany;startArrow=ERzeroToOne;rounded=0;startSize=8;endSize=8;curved=1;exitX=0.5;exitY=0;exitDx=0;exitDy=0;entryX=0;entryY=0.5;entryDx=0;entryDy=0;" parent="1" source="yB6PEHeClfCz39mA1kA1-144" target="Aw1wOn6VcAcYNDQoZttc-8" edge="1">
          <mxGeometry width="100" height="100" relative="1" as="geometry">
            <mxPoint x="567" y="-577" as="sourcePoint" />
            <mxPoint x="614" y="-825" as="targetPoint" />
          </mxGeometry>
        </mxCell>
        <mxCell id="JpFCLJusEWWW7auqfoFQ-1" value="default_items" style="shape=table;startSize=30;container=1;collapsible=1;childLayout=tableLayout;fixedRows=1;rowLines=0;fontStyle=1;align=center;resizeLast=1;html=1;" parent="1" vertex="1">
          <mxGeometry x="1233" y="-722" width="180" height="90" as="geometry" />
        </mxCell>
        <mxCell id="JpFCLJusEWWW7auqfoFQ-2" value="" style="shape=tableRow;horizontal=0;startSize=0;swimlaneHead=0;swimlaneBody=0;fillColor=none;collapsible=0;dropTarget=0;points=[[0,0.5],[1,0.5]];portConstraint=eastwest;top=0;left=0;right=0;bottom=1;" parent="JpFCLJusEWWW7auqfoFQ-1" vertex="1">
          <mxGeometry y="30" width="180" height="30" as="geometry" />
        </mxCell>
        <mxCell id="JpFCLJusEWWW7auqfoFQ-3" value="PK" style="shape=partialRectangle;connectable=0;fillColor=none;top=0;left=0;bottom=0;right=0;fontStyle=1;overflow=hidden;whiteSpace=wrap;html=1;" parent="JpFCLJusEWWW7auqfoFQ-2" vertex="1">
          <mxGeometry width="30" height="30" as="geometry">
            <mxRectangle width="30" height="30" as="alternateBounds" />
          </mxGeometry>
        </mxCell>
        <mxCell id="JpFCLJusEWWW7auqfoFQ-4" value="id" style="shape=partialRectangle;connectable=0;fillColor=none;top=0;left=0;bottom=0;right=0;align=left;spacingLeft=6;fontStyle=5;overflow=hidden;whiteSpace=wrap;html=1;" parent="JpFCLJusEWWW7auqfoFQ-2" vertex="1">
          <mxGeometry x="30" width="150" height="30" as="geometry">
            <mxRectangle width="150" height="30" as="alternateBounds" />
          </mxGeometry>
        </mxCell>
        <mxCell id="JpFCLJusEWWW7auqfoFQ-5" value="" style="shape=tableRow;horizontal=0;startSize=0;swimlaneHead=0;swimlaneBody=0;fillColor=none;collapsible=0;dropTarget=0;points=[[0,0.5],[1,0.5]];portConstraint=eastwest;top=0;left=0;right=0;bottom=0;" parent="JpFCLJusEWWW7auqfoFQ-1" vertex="1">
          <mxGeometry y="60" width="180" height="30" as="geometry" />
        </mxCell>
        <mxCell id="JpFCLJusEWWW7auqfoFQ-6" value="string" style="shape=partialRectangle;connectable=0;fillColor=none;top=0;left=0;bottom=0;right=0;editable=1;overflow=hidden;whiteSpace=wrap;html=1;" parent="JpFCLJusEWWW7auqfoFQ-5" vertex="1">
          <mxGeometry width="30" height="30" as="geometry">
            <mxRectangle width="30" height="30" as="alternateBounds" />
          </mxGeometry>
        </mxCell>
        <mxCell id="JpFCLJusEWWW7auqfoFQ-7" value="name" style="shape=partialRectangle;connectable=0;fillColor=none;top=0;left=0;bottom=0;right=0;align=left;spacingLeft=6;overflow=hidden;whiteSpace=wrap;html=1;" parent="JpFCLJusEWWW7auqfoFQ-5" vertex="1">
          <mxGeometry x="30" width="150" height="30" as="geometry">
            <mxRectangle width="150" height="30" as="alternateBounds" />
          </mxGeometry>
        </mxCell>
        <mxCell id="JpFCLJusEWWW7auqfoFQ-28" value="" style="edgeStyle=entityRelationEdgeStyle;fontSize=12;html=1;endArrow=ERzeroToMany;startArrow=ERmandOne;rounded=0;startSize=8;endSize=8;curved=1;exitX=0;exitY=0.5;exitDx=0;exitDy=0;entryX=1;entryY=0.5;entryDx=0;entryDy=0;" parent="1" source="JpFCLJusEWWW7auqfoFQ-2" target="2oLCh0QyTaKZR6Ctz6h5-8" edge="1">
          <mxGeometry width="100" height="100" relative="1" as="geometry">
            <mxPoint x="1153" y="-583.81" as="sourcePoint" />
            <mxPoint x="1241.2800000000002" y="-590" as="targetPoint" />
            <Array as="points">
              <mxPoint x="555.1999999999999" y="-976.1699999999998" />
              <mxPoint x="582.36" y="-492.05999999999995" />
              <mxPoint x="1164.2" y="-973.1699999999998" />
              <mxPoint x="630.36" y="-456.05999999999995" />
            </Array>
          </mxGeometry>
        </mxCell>
        <mxCell id="2oLCh0QyTaKZR6Ctz6h5-1" value="default_item_checklists" style="shape=table;startSize=30;container=1;collapsible=1;childLayout=tableLayout;fixedRows=1;rowLines=0;fontStyle=1;align=center;resizeLast=1;html=1;" parent="1" vertex="1">
          <mxGeometry x="964" y="-733" width="180" height="120" as="geometry" />
        </mxCell>
        <mxCell id="2oLCh0QyTaKZR6Ctz6h5-2" value="" style="shape=tableRow;horizontal=0;startSize=0;swimlaneHead=0;swimlaneBody=0;fillColor=none;collapsible=0;dropTarget=0;points=[[0,0.5],[1,0.5]];portConstraint=eastwest;top=0;left=0;right=0;bottom=1;" parent="2oLCh0QyTaKZR6Ctz6h5-1" vertex="1">
          <mxGeometry y="30" width="180" height="30" as="geometry" />
        </mxCell>
        <mxCell id="2oLCh0QyTaKZR6Ctz6h5-3" value="PK" style="shape=partialRectangle;connectable=0;fillColor=none;top=0;left=0;bottom=0;right=0;fontStyle=1;overflow=hidden;whiteSpace=wrap;html=1;" parent="2oLCh0QyTaKZR6Ctz6h5-2" vertex="1">
          <mxGeometry width="30" height="30" as="geometry">
            <mxRectangle width="30" height="30" as="alternateBounds" />
          </mxGeometry>
        </mxCell>
        <mxCell id="2oLCh0QyTaKZR6Ctz6h5-4" value="id" style="shape=partialRectangle;connectable=0;fillColor=none;top=0;left=0;bottom=0;right=0;align=left;spacingLeft=6;fontStyle=5;overflow=hidden;whiteSpace=wrap;html=1;" parent="2oLCh0QyTaKZR6Ctz6h5-2" vertex="1">
          <mxGeometry x="30" width="150" height="30" as="geometry">
            <mxRectangle width="150" height="30" as="alternateBounds" />
          </mxGeometry>
        </mxCell>
        <mxCell id="2oLCh0QyTaKZR6Ctz6h5-8" value="" style="shape=tableRow;horizontal=0;startSize=0;swimlaneHead=0;swimlaneBody=0;fillColor=none;collapsible=0;dropTarget=0;points=[[0,0.5],[1,0.5]];portConstraint=eastwest;top=0;left=0;right=0;bottom=0;" parent="2oLCh0QyTaKZR6Ctz6h5-1" vertex="1">
          <mxGeometry y="60" width="180" height="30" as="geometry" />
        </mxCell>
        <mxCell id="2oLCh0QyTaKZR6Ctz6h5-9" value="integer" style="shape=partialRectangle;connectable=0;fillColor=none;top=0;left=0;bottom=0;right=0;editable=1;overflow=hidden;whiteSpace=wrap;html=1;" parent="2oLCh0QyTaKZR6Ctz6h5-8" vertex="1">
          <mxGeometry width="30" height="30" as="geometry">
            <mxRectangle width="30" height="30" as="alternateBounds" />
          </mxGeometry>
        </mxCell>
        <mxCell id="2oLCh0QyTaKZR6Ctz6h5-10" value="checklist_id" style="shape=partialRectangle;connectable=0;fillColor=none;top=0;left=0;bottom=0;right=0;align=left;spacingLeft=6;overflow=hidden;whiteSpace=wrap;html=1;" parent="2oLCh0QyTaKZR6Ctz6h5-8" vertex="1">
          <mxGeometry x="30" width="150" height="30" as="geometry">
            <mxRectangle width="150" height="30" as="alternateBounds" />
          </mxGeometry>
        </mxCell>
        <mxCell id="2oLCh0QyTaKZR6Ctz6h5-11" value="" style="shape=tableRow;horizontal=0;startSize=0;swimlaneHead=0;swimlaneBody=0;fillColor=none;collapsible=0;dropTarget=0;points=[[0,0.5],[1,0.5]];portConstraint=eastwest;top=0;left=0;right=0;bottom=0;" parent="2oLCh0QyTaKZR6Ctz6h5-1" vertex="1">
          <mxGeometry y="90" width="180" height="30" as="geometry" />
        </mxCell>
        <mxCell id="2oLCh0QyTaKZR6Ctz6h5-12" value="integer" style="shape=partialRectangle;connectable=0;fillColor=none;top=0;left=0;bottom=0;right=0;editable=1;overflow=hidden;whiteSpace=wrap;html=1;" parent="2oLCh0QyTaKZR6Ctz6h5-11" vertex="1">
          <mxGeometry width="30" height="30" as="geometry">
            <mxRectangle width="30" height="30" as="alternateBounds" />
          </mxGeometry>
        </mxCell>
        <mxCell id="2oLCh0QyTaKZR6Ctz6h5-13" value="default_item_id" style="shape=partialRectangle;connectable=0;fillColor=none;top=0;left=0;bottom=0;right=0;align=left;spacingLeft=6;overflow=hidden;whiteSpace=wrap;html=1;" parent="2oLCh0QyTaKZR6Ctz6h5-11" vertex="1">
          <mxGeometry x="30" width="150" height="30" as="geometry">
            <mxRectangle width="150" height="30" as="alternateBounds" />
          </mxGeometry>
        </mxCell>
        <mxCell id="2oLCh0QyTaKZR6Ctz6h5-14" value="" style="edgeStyle=entityRelationEdgeStyle;fontSize=12;html=1;endArrow=ERzeroToMany;startArrow=ERmandOne;rounded=0;startSize=8;endSize=8;curved=1;exitX=0.5;exitY=0;exitDx=0;exitDy=0;entryX=0.385;entryY=1.144;entryDx=0;entryDy=0;entryPerimeter=0;" parent="1" source="yB6PEHeClfCz39mA1kA1-178" target="2oLCh0QyTaKZR6Ctz6h5-11" edge="1">
          <mxGeometry width="100" height="100" relative="1" as="geometry">
            <mxPoint x="1183" y="-491" as="sourcePoint" />
            <mxPoint x="1092" y="-628.14" as="targetPoint" />
            <Array as="points">
              <mxPoint x="847.68" y="-981.73" />
              <mxPoint x="874.84" y="-497.62" />
              <mxPoint x="1244.26" y="-653.4" />
              <mxPoint x="1456.68" y="-978.73" />
              <mxPoint x="922.84" y="-461.62" />
            </Array>
          </mxGeometry>
        </mxCell>
        <mxCell id="iuhtac6m8BEkXEGGC5YQ-1" value="original_item_checklists" style="shape=table;startSize=30;container=1;collapsible=1;childLayout=tableLayout;fixedRows=1;rowLines=0;fontStyle=1;align=center;resizeLast=1;html=1;" parent="1" vertex="1">
          <mxGeometry x="969" y="-256" width="180" height="120" as="geometry" />
        </mxCell>
        <mxCell id="iuhtac6m8BEkXEGGC5YQ-2" value="" style="shape=tableRow;horizontal=0;startSize=0;swimlaneHead=0;swimlaneBody=0;fillColor=none;collapsible=0;dropTarget=0;points=[[0,0.5],[1,0.5]];portConstraint=eastwest;top=0;left=0;right=0;bottom=1;" parent="iuhtac6m8BEkXEGGC5YQ-1" vertex="1">
          <mxGeometry y="30" width="180" height="30" as="geometry" />
        </mxCell>
        <mxCell id="iuhtac6m8BEkXEGGC5YQ-3" value="PK" style="shape=partialRectangle;connectable=0;fillColor=none;top=0;left=0;bottom=0;right=0;fontStyle=1;overflow=hidden;whiteSpace=wrap;html=1;" parent="iuhtac6m8BEkXEGGC5YQ-2" vertex="1">
          <mxGeometry width="30" height="30" as="geometry">
            <mxRectangle width="30" height="30" as="alternateBounds" />
          </mxGeometry>
        </mxCell>
        <mxCell id="iuhtac6m8BEkXEGGC5YQ-4" value="id" style="shape=partialRectangle;connectable=0;fillColor=none;top=0;left=0;bottom=0;right=0;align=left;spacingLeft=6;fontStyle=5;overflow=hidden;whiteSpace=wrap;html=1;" parent="iuhtac6m8BEkXEGGC5YQ-2" vertex="1">
          <mxGeometry x="30" width="150" height="30" as="geometry">
            <mxRectangle width="150" height="30" as="alternateBounds" />
          </mxGeometry>
        </mxCell>
        <mxCell id="iuhtac6m8BEkXEGGC5YQ-5" value="" style="shape=tableRow;horizontal=0;startSize=0;swimlaneHead=0;swimlaneBody=0;fillColor=none;collapsible=0;dropTarget=0;points=[[0,0.5],[1,0.5]];portConstraint=eastwest;top=0;left=0;right=0;bottom=0;" parent="iuhtac6m8BEkXEGGC5YQ-1" vertex="1">
          <mxGeometry y="60" width="180" height="30" as="geometry" />
        </mxCell>
        <mxCell id="iuhtac6m8BEkXEGGC5YQ-6" value="integer" style="shape=partialRectangle;connectable=0;fillColor=none;top=0;left=0;bottom=0;right=0;editable=1;overflow=hidden;whiteSpace=wrap;html=1;" parent="iuhtac6m8BEkXEGGC5YQ-5" vertex="1">
          <mxGeometry width="30" height="30" as="geometry">
            <mxRectangle width="30" height="30" as="alternateBounds" />
          </mxGeometry>
        </mxCell>
        <mxCell id="iuhtac6m8BEkXEGGC5YQ-7" value="checklist_id" style="shape=partialRectangle;connectable=0;fillColor=none;top=0;left=0;bottom=0;right=0;align=left;spacingLeft=6;overflow=hidden;whiteSpace=wrap;html=1;" parent="iuhtac6m8BEkXEGGC5YQ-5" vertex="1">
          <mxGeometry x="30" width="150" height="30" as="geometry">
            <mxRectangle width="150" height="30" as="alternateBounds" />
          </mxGeometry>
        </mxCell>
        <mxCell id="iuhtac6m8BEkXEGGC5YQ-8" value="" style="shape=tableRow;horizontal=0;startSize=0;swimlaneHead=0;swimlaneBody=0;fillColor=none;collapsible=0;dropTarget=0;points=[[0,0.5],[1,0.5]];portConstraint=eastwest;top=0;left=0;right=0;bottom=0;" parent="iuhtac6m8BEkXEGGC5YQ-1" vertex="1">
          <mxGeometry y="90" width="180" height="30" as="geometry" />
        </mxCell>
        <mxCell id="iuhtac6m8BEkXEGGC5YQ-9" value="integer" style="shape=partialRectangle;connectable=0;fillColor=none;top=0;left=0;bottom=0;right=0;editable=1;overflow=hidden;whiteSpace=wrap;html=1;" parent="iuhtac6m8BEkXEGGC5YQ-8" vertex="1">
          <mxGeometry width="30" height="30" as="geometry">
            <mxRectangle width="30" height="30" as="alternateBounds" />
          </mxGeometry>
        </mxCell>
        <mxCell id="iuhtac6m8BEkXEGGC5YQ-10" value="original_item_id" style="shape=partialRectangle;connectable=0;fillColor=none;top=0;left=0;bottom=0;right=0;align=left;spacingLeft=6;overflow=hidden;whiteSpace=wrap;html=1;" parent="iuhtac6m8BEkXEGGC5YQ-8" vertex="1">
          <mxGeometry x="30" width="150" height="30" as="geometry">
            <mxRectangle width="150" height="30" as="alternateBounds" />
          </mxGeometry>
        </mxCell>
        <mxCell id="iuhtac6m8BEkXEGGC5YQ-11" value="" style="edgeStyle=entityRelationEdgeStyle;fontSize=12;html=1;endArrow=ERzeroToMany;startArrow=ERmandOne;rounded=0;startSize=8;endSize=8;curved=1;exitX=0;exitY=0.5;exitDx=0;exitDy=0;entryX=1;entryY=0.5;entryDx=0;entryDy=0;" parent="1" source="yB6PEHeClfCz39mA1kA1-317" target="iuhtac6m8BEkXEGGC5YQ-8" edge="1">
          <mxGeometry width="100" height="100" relative="1" as="geometry">
            <mxPoint x="1226.894" y="-202" as="sourcePoint" />
            <mxPoint x="1149.0000000000002" y="-183.3699999999999" as="targetPoint" />
            <Array as="points">
              <mxPoint x="1022.26" y="-567.26" />
              <mxPoint x="1049.42" y="-83.14999999999998" />
              <mxPoint x="1631.26" y="-564.26" />
              <mxPoint x="1097.42" y="-47.14999999999998" />
            </Array>
          </mxGeometry>
        </mxCell>
      </root>
    </mxGraphModel>
  </diagram>
</mxfile>
